<mxfile host="65bd71144e">
    <diagram id="zAJiVluDIX9Axxgpk72t" name="Page-1">
        <mxGraphModel dx="1927" dy="803" grid="1" gridSize="10" guides="1" tooltips="1" connect="1" arrows="1" fold="1" page="1" pageScale="1" pageWidth="827" pageHeight="1169" math="0" shadow="0">
            <root>
                <mxCell id="0"/>
                <mxCell id="1" parent="0"/>
                <mxCell id="2" value="" style="rounded=1;whiteSpace=wrap;html=1;" parent="1" vertex="1">
                    <mxGeometry x="60" y="80" width="200" height="150" as="geometry"/>
                </mxCell>
                <mxCell id="3" value="data gathering" style="rounded=0;whiteSpace=wrap;html=1;" parent="1" vertex="1">
                    <mxGeometry x="110" y="60" width="100" height="30" as="geometry"/>
                </mxCell>
                <mxCell id="8" style="edgeStyle=orthogonalEdgeStyle;rounded=0;orthogonalLoop=1;jettySize=auto;html=1;entryX=0.875;entryY=0.5;entryDx=0;entryDy=0;fontSize=12;entryPerimeter=0;" parent="1" source="5" target="10" edge="1">
                    <mxGeometry relative="1" as="geometry">
                        <mxPoint x="65" y="130" as="targetPoint"/>
                        <Array as="points">
                            <mxPoint x="40" y="125"/>
                            <mxPoint x="40" y="140"/>
                        </Array>
                    </mxGeometry>
                </mxCell>
                <mxCell id="5" value="&lt;font style=&quot;font-size: 14px;&quot;&gt;BestLimit&lt;/font&gt;" style="rounded=1;whiteSpace=wrap;html=1;rotation=0;fontSize=14;" parent="1" vertex="1">
                    <mxGeometry x="90" y="110" width="140" height="30" as="geometry"/>
                </mxCell>
                <mxCell id="9" style="edgeStyle=orthogonalEdgeStyle;rounded=0;orthogonalLoop=1;jettySize=auto;html=1;fontSize=12;entryX=0.875;entryY=0.5;entryDx=0;entryDy=0;entryPerimeter=0;" parent="1" source="6" target="10" edge="1">
                    <mxGeometry relative="1" as="geometry">
                        <mxPoint x="65" y="130" as="targetPoint"/>
                        <Array as="points">
                            <mxPoint x="40" y="155"/>
                            <mxPoint x="40" y="140"/>
                        </Array>
                    </mxGeometry>
                </mxCell>
                <mxCell id="6" value="&lt;font style=&quot;font-size: 14px;&quot;&gt;trades&lt;/font&gt;" style="rounded=1;whiteSpace=wrap;html=1;rotation=0;fontSize=14;" parent="1" vertex="1">
                    <mxGeometry x="90" y="140" width="140" height="30" as="geometry"/>
                </mxCell>
                <mxCell id="10" value="&lt;span style=&quot;font-size: 9px; background-color: rgb(255, 255, 255);&quot;&gt;OMS Driver&lt;/span&gt;" style="ellipse;shape=cloud;whiteSpace=wrap;html=1;fontSize=12;" parent="1" vertex="1">
                    <mxGeometry x="-80" y="110" width="100" height="60" as="geometry"/>
                </mxCell>
                <mxCell id="13" style="edgeStyle=orthogonalEdgeStyle;rounded=0;orthogonalLoop=1;jettySize=auto;html=1;entryX=0.875;entryY=0.5;entryDx=0;entryDy=0;entryPerimeter=0;fontSize=12;" parent="1" source="11" target="12" edge="1">
                    <mxGeometry relative="1" as="geometry"/>
                </mxCell>
                <mxCell id="11" value="&lt;font style=&quot;font-size: 14px&quot;&gt;treshold&lt;/font&gt;" style="rounded=1;whiteSpace=wrap;html=1;rotation=0;fontSize=14;" parent="1" vertex="1">
                    <mxGeometry x="90" y="185" width="140" height="30" as="geometry"/>
                </mxCell>
                <mxCell id="12" value="&lt;span style=&quot;font-size: 9px; background-color: rgb(255, 255, 255);&quot;&gt;tsetmc.ir api&lt;/span&gt;" style="ellipse;shape=cloud;whiteSpace=wrap;html=1;fontSize=12;" parent="1" vertex="1">
                    <mxGeometry x="-80" y="170" width="100" height="60" as="geometry"/>
                </mxCell>
                <mxCell id="14" value="" style="shape=flexArrow;endArrow=classic;html=1;rounded=0;fontSize=12;width=8;endSize=8.11;endWidth=9.333333333333334;fillColor=#E6E6E6;fillStyle=cross-hatch;" parent="1" edge="1">
                    <mxGeometry width="50" height="50" relative="1" as="geometry">
                        <mxPoint x="162.07999999999998" y="240" as="sourcePoint"/>
                        <mxPoint x="162.07999999999998" y="290" as="targetPoint"/>
                    </mxGeometry>
                </mxCell>
                <mxCell id="15" value="" style="rounded=1;whiteSpace=wrap;html=1;" parent="1" vertex="1">
                    <mxGeometry x="82.5" y="330" width="160" height="210" as="geometry"/>
                </mxCell>
                <mxCell id="16" value="data preproccess" style="rounded=0;whiteSpace=wrap;html=1;" parent="1" vertex="1">
                    <mxGeometry x="107.5" y="310" width="110" height="30" as="geometry"/>
                </mxCell>
                <mxCell id="17" value="Reformat" style="rounded=1;whiteSpace=wrap;html=1;fontSize=14;rotation=90;" parent="1" vertex="1">
                    <mxGeometry x="112.5" y="410" width="170" height="60" as="geometry"/>
                </mxCell>
                <mxCell id="18" value="Delete Useless" style="rounded=1;whiteSpace=wrap;html=1;fontSize=14;rotation=90;" parent="1" vertex="1">
                    <mxGeometry x="45" y="410" width="170" height="60" as="geometry"/>
                </mxCell>
                <mxCell id="19" value="" style="rounded=1;whiteSpace=wrap;html=1;" parent="1" vertex="1">
                    <mxGeometry x="17.5" y="635" width="285" height="240" as="geometry"/>
                </mxCell>
                <mxCell id="20" value="Feature Selection" style="rounded=0;whiteSpace=wrap;html=1;" parent="1" vertex="1">
                    <mxGeometry x="75" y="620" width="170" height="30" as="geometry"/>
                </mxCell>
                <mxCell id="21" value="" style="shape=flexArrow;endArrow=classic;html=1;rounded=0;fontSize=12;width=8;endSize=8.11;endWidth=9.333333333333334;fillColor=#E6E6E6;fillStyle=cross-hatch;" parent="1" edge="1">
                    <mxGeometry width="50" height="50" relative="1" as="geometry">
                        <mxPoint x="160" y="560" as="sourcePoint"/>
                        <mxPoint x="160" y="610" as="targetPoint"/>
                    </mxGeometry>
                </mxCell>
                <mxCell id="22" value="1- tag happend Q" style="rounded=1;whiteSpace=wrap;html=1;fontSize=14;rotation=0;align=center;" parent="1" vertex="1">
                    <mxGeometry x="47.5" y="660" width="220" height="50" as="geometry"/>
                </mxCell>
                <mxCell id="23" value="2- add lable to pre Q records" style="rounded=1;whiteSpace=wrap;html=1;fontSize=14;rotation=0;align=center;" parent="1" vertex="1">
                    <mxGeometry x="47.5" y="710" width="220" height="50" as="geometry"/>
                </mxCell>
                <mxCell id="24" value="3- add feature from bl to records" style="rounded=1;whiteSpace=wrap;html=1;fontSize=14;rotation=0;align=center;" parent="1" vertex="1">
                    <mxGeometry x="47.5" y="760" width="220" height="50" as="geometry"/>
                </mxCell>
                <mxCell id="25" value="4- Delete happend Q and bl" style="rounded=1;whiteSpace=wrap;html=1;fontSize=14;rotation=0;align=center;" parent="1" vertex="1">
                    <mxGeometry x="47.5" y="810" width="220" height="50" as="geometry"/>
                </mxCell>
                <mxCell id="26" value="Prediction Model&lt;br&gt;Random Forest" style="rounded=1;whiteSpace=wrap;html=1;fontSize=14;" parent="1" vertex="1">
                    <mxGeometry x="37.5" y="970" width="240" height="90" as="geometry"/>
                </mxCell>
                <mxCell id="27" value="" style="shape=flexArrow;endArrow=classic;html=1;rounded=0;fontSize=12;width=8;endSize=8.11;endWidth=9.333333333333334;fillColor=#E6E6E6;fillStyle=cross-hatch;" parent="1" edge="1">
                    <mxGeometry width="50" height="50" relative="1" as="geometry">
                        <mxPoint x="159.79" y="900" as="sourcePoint"/>
                        <mxPoint x="159.79" y="950" as="targetPoint"/>
                    </mxGeometry>
                </mxCell>
                <mxCell id="28" value="" style="shape=flexArrow;endArrow=classic;html=1;rounded=0;fontSize=12;width=8;endSize=8.11;endWidth=9.333333333333334;fillColor=#E6E6E6;fillStyle=cross-hatch;" parent="1" edge="1">
                    <mxGeometry width="50" height="50" relative="1" as="geometry">
                        <mxPoint x="157.12999999999997" y="1080" as="sourcePoint"/>
                        <mxPoint x="157.12999999999997" y="1130" as="targetPoint"/>
                    </mxGeometry>
                </mxCell>
                <mxCell id="29" value="prepare as a service (Flask)" style="rounded=1;whiteSpace=wrap;html=1;fontSize=14;" parent="1" vertex="1">
                    <mxGeometry x="37.5" y="1150" width="240" height="90" as="geometry"/>
                </mxCell>
                <mxCell id="30" value="Service" style="rounded=1;whiteSpace=wrap;html=1;fontSize=14;" parent="1" vertex="1">
                    <mxGeometry x="720" y="592.5" width="120" height="60" as="geometry"/>
                </mxCell>
                <mxCell id="31" value="" style="shape=flexArrow;endArrow=classic;html=1;rounded=0;fontSize=12;width=8;endSize=8.11;endWidth=9.333333333333334;fillColor=#E6E6E6;fillStyle=cross-hatch;" parent="1" edge="1">
                    <mxGeometry width="50" height="50" relative="1" as="geometry">
                        <mxPoint x="670" y="622.36" as="sourcePoint"/>
                        <mxPoint x="720" y="622.36" as="targetPoint"/>
                    </mxGeometry>
                </mxCell>
                <mxCell id="32" value="" style="shape=flexArrow;endArrow=classic;html=1;rounded=0;fontSize=12;width=8;endSize=8.11;endWidth=9.333333333333334;fillColor=#E6E6E6;fillStyle=cross-hatch;" parent="1" edge="1">
                    <mxGeometry width="50" height="50" relative="1" as="geometry">
                        <mxPoint x="840" y="622.36" as="sourcePoint"/>
                        <mxPoint x="890" y="622.36" as="targetPoint"/>
                    </mxGeometry>
                </mxCell>
                <mxCell id="33" value="instrument_id" style="ellipse;whiteSpace=wrap;html=1;fontSize=14;" parent="1" vertex="1">
                    <mxGeometry x="560" y="602.5" width="115" height="40" as="geometry"/>
                </mxCell>
                <mxCell id="34" value="1" style="ellipse;whiteSpace=wrap;html=1;fontSize=14;" parent="1" vertex="1">
                    <mxGeometry x="890" y="585" width="25" height="25" as="geometry"/>
                </mxCell>
                <mxCell id="37" value="-1" style="ellipse;whiteSpace=wrap;html=1;fontSize=14;" parent="1" vertex="1">
                    <mxGeometry x="890" y="610" width="25" height="25" as="geometry"/>
                </mxCell>
                <mxCell id="38" value="0" style="ellipse;whiteSpace=wrap;html=1;fontSize=14;" parent="1" vertex="1">
                    <mxGeometry x="890" y="635" width="25" height="25" as="geometry"/>
                </mxCell>
                <mxCell id="39" value="Buy Q" style="rounded=1;whiteSpace=wrap;html=1;fontSize=14;" parent="1" vertex="1">
                    <mxGeometry x="915" y="587.5" width="50" height="20" as="geometry"/>
                </mxCell>
                <mxCell id="41" value="Sell Q" style="rounded=1;whiteSpace=wrap;html=1;fontSize=14;" parent="1" vertex="1">
                    <mxGeometry x="915" y="612.5" width="50" height="20" as="geometry"/>
                </mxCell>
                <mxCell id="42" value="No Q" style="rounded=1;whiteSpace=wrap;html=1;fontSize=14;" parent="1" vertex="1">
                    <mxGeometry x="915" y="637.5" width="50" height="20" as="geometry"/>
                </mxCell>
            </root>
        </mxGraphModel>
    </diagram>
</mxfile>